<?xml version="1.0" encoding="UTF-8" standalone="no"?>
<!DOCTYPE svg PUBLIC "-//W3C//DTD SVG 1.1//EN" "http://www.w3.org/Graphics/SVG/1.1/DTD/svg11.dtd">
<svg width="100%" height="100%" viewBox="0 0 2000 1000" version="1.1" xmlns="http://www.w3.org/2000/svg" xmlns:xlink="http://www.w3.org/1999/xlink" xml:space="preserve" xmlns:serif="http://www.serif.com/" style="fill-rule:evenodd;clip-rule:evenodd;stroke-linejoin:round;stroke-miterlimit:2;">
    <g>
        <g transform="matrix(1.3306,0,0,1.3306,1595.887494,582.194058)">
            <path d="M0,0C4.171,-0.08 6.408,0.461 9.765,3.05C12.299,6.851 12.025,9.866 11.976,14.266C11.975,15.104 11.974,15.942 11.972,16.805C11.966,19.579 11.945,22.354 11.925,25.128C11.919,27.058 11.914,28.987 11.909,30.917C11.896,36.004 11.872,41.091 11.844,46.178C11.801,54.306 11.771,62.435 11.748,70.563C11.738,73.399 11.721,76.234 11.703,79.07C11.696,80.819 11.69,82.568 11.683,84.317C11.676,85.101 11.67,85.884 11.663,86.692C11.653,91.224 11.78,95.604 12.765,100.05C15.934,102.163 16.793,102.312 20.432,102.382C21.377,102.405 22.322,102.429 23.295,102.454C24.314,102.471 25.333,102.489 26.382,102.507C28.537,102.568 30.692,102.63 32.847,102.693C36.246,102.782 39.645,102.863 43.045,102.929C46.325,102.996 49.603,103.093 52.882,103.195C53.897,103.207 54.912,103.218 55.957,103.23C60.68,103.395 63.035,103.495 66.883,106.42C69.095,109.512 69.765,111.247 69.765,115.05C68.226,119.181 66.648,121.881 62.765,124.05C57.981,125.375 53.146,125.212 48.222,125.218C47.298,125.222 46.375,125.225 45.423,125.228C43.471,125.233 41.518,125.236 39.566,125.236C36.605,125.238 33.645,125.256 30.685,125.275C28.781,125.278 26.876,125.28 24.972,125.281C24.099,125.288 23.225,125.295 22.326,125.303C12.929,125.268 2.509,124.224 -4.77,117.668C-9.618,112.269 -10.486,106.814 -10.478,99.767C-10.481,98.712 -10.481,98.712 -10.484,97.635C-10.487,95.323 -10.477,93.011 -10.465,90.699C-10.464,89.077 -10.464,87.455 -10.464,85.833C-10.463,82.436 -10.454,79.038 -10.441,75.641C-10.424,71.317 -10.42,66.994 -10.421,62.67C-10.42,59.319 -10.415,55.968 -10.408,52.617C-10.405,51.025 -10.403,49.432 -10.402,47.84C-10.4,45.597 -10.391,43.354 -10.38,41.11C-10.375,39.206 -10.375,39.206 -10.369,37.262C-10.304,33.755 -10.026,30.282 -9.727,26.787C-9.635,25.711 -9.543,24.636 -9.449,23.527C-9.378,22.71 -9.308,21.892 -9.235,21.05C-9.815,21.055 -10.395,21.059 -10.993,21.063C-87.543,21.624 -164.093,22.127 -240.644,22.531C-242.041,22.538 -242.041,22.538 -243.466,22.546C-271.065,22.692 -298.664,22.834 -326.263,22.975C-336.783,23.029 -347.302,23.083 -357.822,23.137C-394.286,23.325 -430.749,23.512 -467.213,23.697C-469.469,23.709 -476.218,23.743 -477.37,23.749C-483.027,23.777 -488.685,23.806 -494.342,23.835C-495.465,23.84 -496.587,23.846 -497.744,23.852C-533.999,24.036 -570.253,24.224 -606.508,24.414C-645.432,24.618 -684.356,24.818 -723.28,25.015C-727.612,25.037 -731.943,25.059 -736.275,25.081C-737.34,25.086 -738.406,25.091 -739.504,25.097C-754.077,25.171 -768.651,25.246 -783.225,25.324C-807.774,25.455 -832.324,25.581 -856.874,25.699C-858.288,25.706 -858.288,25.706 -859.731,25.713C-953.232,26.162 -1046.733,26.139 -1140.235,26.05L-1140.235,6.05C-1093.122,5.782 -1046.01,5.517 -998.897,5.254C-995.995,5.238 -993.092,5.222 -990.19,5.206C-895.728,4.679 -801.266,4.169 -629.187,3.297C-626.719,3.285 -624.251,3.272 -621.783,3.26C-552.646,2.912 -483.51,2.566 -414.373,2.222C-413.582,2.218 -408.788,2.195 -407.193,2.187C-379.175,2.047 -351.156,1.908 -323.138,1.768C-318.608,1.745 -314.078,1.723 -309.548,1.7C-223.665,1.272 -137.781,0.825 -51.898,0.333C-50.158,0.323 -48.417,0.313 -46.677,0.303C-39.512,0.262 -32.347,0.221 -25.183,0.179C-23.067,0.166 -20.951,0.154 -18.835,0.142C-16.317,0.127 -13.799,0.113 -11.281,0.098C-9.158,0.086 -7.034,0.075 -4.911,0.067C-3.274,0.057 -1.637,0.037 0,0Z" style="fill:white;fill-rule:nonzero;"/>
        </g>
        <g transform="matrix(1.3306,0,0,1.3306,1039.217508,365.040512)">
            <path d="M0,0C7.078,5.169 11.579,11.307 15.125,19.25C16.094,18.425 17.064,17.6 18.062,16.75C18.71,16.201 19.357,15.652 20.023,15.086C21.412,13.873 22.772,12.628 24.102,11.352C38.227,-2.033 54.053,-7.386 73.304,-7.223C85.651,-6.864 97.012,-4.15 105.867,5.062C116.53,18.219 116.437,34.354 116.539,50.414C116.558,52.293 116.577,54.172 116.598,56.05C116.649,60.989 116.689,65.928 116.726,70.868C116.766,75.813 116.817,80.758 116.867,85.703C116.951,94.106 117.018,102.509 117.073,110.912C117.106,116.031 117.156,121.15 117.218,126.269C117.237,128.458 117.255,130.647 117.273,132.836C117.289,133.785 117.304,134.735 117.32,135.713C117.353,141.908 117.353,141.908 115.125,145.25C112.606,145.555 110.337,145.67 107.816,145.648C106.733,145.653 106.733,145.653 105.627,145.657C104.098,145.659 102.569,145.654 101.04,145.641C98.7,145.625 96.361,145.641 94.021,145.66C92.536,145.658 91.051,145.654 89.566,145.648C88.866,145.655 88.166,145.661 87.445,145.667C82.579,145.596 82.579,145.596 80.438,143.963C78.137,140.961 78.765,137.224 78.832,133.594C78.836,132.709 78.841,131.824 78.845,130.913C78.857,128.987 78.875,127.062 78.9,125.138C78.938,122.08 78.957,119.022 78.972,115.964C79.012,108.358 79.084,100.753 79.156,93.148C79.216,86.737 79.262,80.326 79.293,73.914C79.312,70.922 79.35,67.931 79.388,64.939C79.481,53.383 79.218,42.426 74.562,31.625C68.339,25.561 60.58,24.589 52.171,24.637C41.938,25.121 34.464,30.549 27.125,37.25L25.125,37.25C24.754,38.023 24.754,38.023 24.375,38.812C23.125,41.25 23.125,41.25 21.062,44C15.612,53.545 17.996,69.931 18.05,80.727C18.063,83.345 18.069,85.964 18.074,88.582C18.085,94.117 18.105,99.652 18.125,105.188C18.149,111.66 18.169,118.132 18.181,124.604C18.187,127.186 18.2,129.768 18.213,132.35C18.216,133.915 18.22,135.481 18.223,137.047C18.228,137.766 18.233,138.485 18.238,139.226C18.238,140.901 18.187,142.576 18.125,144.25C16.189,146.186 12.555,145.414 9.914,145.418C9.19,145.421 8.466,145.425 7.72,145.428C6.185,145.433 4.65,145.435 3.115,145.435C0.767,145.437 -1.581,145.456 -3.93,145.475C-5.419,145.478 -6.909,145.48 -8.398,145.48C-9.102,145.488 -9.805,145.495 -10.529,145.502C-14.208,145.485 -15.727,145.349 -18.875,143.25C-19.151,140.321 -19.232,137.605 -19.184,134.676C-19.18,133.344 -19.18,133.344 -19.175,131.985C-19.163,129.034 -19.13,126.084 -19.098,123.133C-19.087,121.079 -19.078,119.026 -19.07,116.972C-19.048,111.548 -19.009,106.125 -18.964,100.701C-18.894,92.055 -18.839,83.409 -18.802,74.764C-18.785,71.755 -18.756,68.746 -18.725,65.738C-18.006,46.795 -18.006,46.795 -25.875,30.25C-33.425,24.241 -41.594,24.452 -50.875,25.25C-61.271,28.023 -72.767,34.187 -78.875,43.25C-81.327,47.913 -81.139,52.279 -81.086,57.415C-81.084,58.786 -81.084,58.786 -81.082,60.186C-81.076,63.201 -81.055,66.215 -81.035,69.23C-81.029,71.326 -81.024,73.422 -81.019,75.517C-81.006,81.029 -80.982,86.54 -80.954,92.052C-80.911,100.884 -80.881,109.717 -80.858,118.55C-80.848,121.64 -80.831,124.73 -80.813,127.82C-80.806,129.704 -80.8,131.589 -80.793,133.473C-80.786,134.337 -80.78,135.201 -80.773,136.091C-80.761,142.023 -80.761,142.023 -81.875,144.25C-86.978,145.951 -92.413,145.475 -97.754,145.49C-99.868,145.5 -101.98,145.531 -104.094,145.562C-105.437,145.569 -106.781,145.574 -108.125,145.578C-109.347,145.587 -110.569,145.597 -111.828,145.606C-114.875,145.25 -114.875,145.25 -116.546,144.205C-118.591,141.197 -118.25,138.12 -118.184,134.611C-118.18,133.444 -118.18,133.444 -118.175,132.254C-118.167,130.559 -118.152,128.865 -118.131,127.171C-118.097,124.463 -118.082,121.755 -118.07,119.046C-118.048,114.237 -118.009,109.429 -117.964,104.62C-117.437,59.076 -117.437,59.076 -123.07,13.953C-123.747,10.335 -124.058,6.944 -123.875,3.25C-117.53,1.829 -111.18,0.44 -104.812,-0.875C-103.966,-1.057 -103.12,-1.239 -102.248,-1.426C-97.011,-2.5 -92.221,-2.935 -86.875,-2.75C-86.682,-1.893 -86.488,-1.036 -86.289,-0.152C-85.898,1.563 -85.898,1.563 -85.5,3.312C-85.245,4.438 -84.99,5.563 -84.727,6.723C-83.871,10.268 -82.9,13.75 -81.875,17.25C-81.099,16.549 -80.323,15.848 -79.523,15.125C-57.89,-4.029 -27.107,-16.536 0,0Z" style="fill:white;fill-rule:nonzero;"/>
        </g>
        <g transform="matrix(1.3306,0,0,1.3306,1642.145837,266.908729)">
            <path d="M0,0C1.318,6.779 0.95,13.422 0.695,20.297C0.63,22.25 0.63,22.25 0.564,24.243C0.448,27.711 0.325,31.18 0.2,34.648C0.078,38.075 -0.037,41.502 -0.152,44.93C-0.878,66.287 -0.878,66.287 -1.287,75.782C-2.044,93.624 -2.198,111.443 -2.188,129.297C-2.187,131.717 -2.188,134.138 -2.19,136.558C-2.195,163.745 -1.542,190.852 0,218C-4.434,220.217 -10.353,219.451 -15.286,219.613C-17.492,219.687 -19.697,219.778 -21.902,219.869C-23.299,219.918 -24.697,219.965 -26.094,220.012C-27.369,220.058 -28.645,220.104 -29.959,220.151C-33,220 -33,220 -35,218C-36.279,214.374 -36.316,210.559 -36.562,206.75C-36.646,205.487 -36.73,204.223 -36.816,202.922C-36.877,201.958 -36.938,200.993 -37,200C-38.33,201.207 -38.33,201.207 -39.688,202.438C-58.462,218.443 -75.614,223.244 -100,222C-116.048,220.292 -130.693,210.052 -140.652,197.812C-156.436,177.434 -160.39,153.678 -157.723,128.373C-154.983,109.109 -144.819,91.107 -130.184,78.359C-113.269,65.824 -93.5,62.517 -72.817,65.293C-60.445,67.694 -50.986,75.629 -42.117,84.059C-40.356,86.113 -40.356,86.113 -39,86L-39,2C-36.019,0.509 -32.903,0.617 -29.625,0.438C-28.887,0.395 -28.149,0.353 -27.389,0.309C-18.263,-0.163 -9.135,-0.085 0,0ZM-99,100C-100.547,100.866 -100.547,100.866 -102.125,101.75C-113.354,110.538 -119.938,121.503 -122.688,135.5C-123.903,149.114 -121.77,162.145 -113.25,173.188C-105.503,182.273 -97.255,189.431 -84.836,190.445C-73.616,190.939 -64.531,189.313 -55.75,181.875C-44.531,170.976 -39.239,158.977 -38.75,143.375C-38.931,128.891 -43.9,116.578 -53.789,106.008C-61.462,99.04 -69.908,95.602 -80.25,95.625C-81.375,95.627 -81.375,95.627 -82.523,95.63C-88.669,95.765 -93.604,96.959 -99,100Z" style="fill:white;fill-rule:nonzero;"/>
        </g>
        <g transform="matrix(1.3306,0,0,1.3306,9.746949,269.385048)">
            <path d="M0,0C1.3,0.003 1.3,0.003 2.626,0.006C3.51,0.005 4.394,0.004 5.305,0.003C7.178,0.003 9.051,0.004 10.924,0.009C13.801,0.014 16.679,0.009 19.556,0.002C21.371,0.003 23.186,0.004 25.001,0.006C25.868,0.004 26.735,0.002 27.627,0C33.699,0.024 33.699,0.024 34.814,1.139C34.831,3.224 34.776,5.309 34.693,7.393C34.644,8.711 34.595,10.03 34.544,11.388C34.517,12.092 34.489,12.796 34.46,13.521C34.319,17.178 34.209,20.836 34.095,24.494C33.965,28.612 33.83,32.728 33.665,36.845C33.54,40.068 33.453,43.289 33.376,46.514C33.33,47.449 33.284,48.385 33.236,49.348C33.117,56.714 35.586,61.226 39.814,67.139C40.503,68.134 40.503,68.134 41.207,69.149C42.54,71.029 43.916,72.869 45.314,74.701C45.823,75.374 46.332,76.047 46.857,76.74C54.027,86.135 61.568,95.244 69.298,104.182C69.849,104.819 70.399,105.455 70.966,106.111C72.001,107.303 73.039,108.491 74.083,109.675C76.42,112.355 78.44,114.839 79.814,118.139C88.096,110.124 95.384,101.358 102.298,92.153C104.035,89.845 105.786,87.547 107.536,85.248C121.185,67.266 128.006,56.701 126.314,33.764C125.523,22.563 125.753,11.363 125.814,0.139L166.814,0.139C168.753,4.017 169.084,5.51 169.168,9.663C169.206,11.327 169.206,11.327 169.246,13.025C169.26,14.223 169.275,15.42 169.29,16.655C169.306,17.898 169.323,19.142 169.339,20.424C169.367,23.063 169.389,25.702 169.404,28.342C169.422,31.02 169.468,33.693 169.527,36.371C169.878,52.189 169.982,64.862 160.814,78.139C159.981,79.489 159.981,79.489 159.131,80.866C157.68,83.185 156.152,85.413 154.564,87.639C154.013,88.427 153.462,89.216 152.895,90.028C147.382,97.867 141.645,105.536 135.814,113.139C135.374,113.713 134.935,114.288 134.482,114.88C131.604,118.641 128.71,122.391 125.814,126.139C124.983,127.218 124.152,128.298 123.322,129.377C122.907,129.916 122.493,130.454 122.067,131.009C121.236,132.09 120.406,133.171 119.576,134.254C117.439,137.041 115.285,139.813 113.103,142.565C112.657,143.132 112.211,143.699 111.751,144.283C110.519,145.85 109.28,147.41 108.04,148.971C103.502,155.428 101.183,160.402 101.501,168.451C101.524,169.671 101.524,169.671 101.548,170.915C101.614,173.991 101.715,177.064 101.814,180.139C101.875,182.369 101.932,184.598 101.99,186.828C102.234,196.266 102.515,205.703 102.814,215.139C98.91,217.764 94.736,217.427 90.216,217.405C89.385,217.406 88.555,217.408 87.699,217.41C85.946,217.412 84.194,217.408 82.441,217.4C79.757,217.389 77.074,217.4 74.39,217.412C72.686,217.411 70.982,217.409 69.279,217.405C68.475,217.409 67.672,217.413 66.845,217.417C62.98,217.384 61.103,217.332 57.814,215.139C57.557,212.369 57.488,209.842 57.564,207.076C57.58,205.865 57.58,205.865 57.597,204.628C57.692,199.351 57.966,194.093 58.314,188.826C60.044,163.074 60.044,163.074 47.466,141.315C44.297,137.571 41.342,133.669 38.376,129.764C37.538,128.662 37.538,128.662 36.683,127.537C35.575,126.08 34.468,124.624 33.361,123.167C31.988,121.368 30.606,119.577 29.216,117.791C-7.306,70.818 -7.306,70.818 -7.316,57.009C-7.319,55.772 -7.322,54.534 -7.325,53.259C-7.323,51.913 -7.321,50.567 -7.319,49.221C-7.32,47.839 -7.321,46.457 -7.322,45.075C-7.323,42.184 -7.321,39.294 -7.317,36.403C-7.311,32.69 -7.314,28.978 -7.32,25.265C-7.324,22.415 -7.323,19.564 -7.32,16.713C-7.319,15.344 -7.32,13.974 -7.323,12.605C-7.325,10.697 -7.321,8.788 -7.316,6.88C-7.315,5.793 -7.314,4.706 -7.313,3.586C-7.063,-1.23 -4.141,0.016 0,0Z" style="fill:white;fill-rule:nonzero;"/>
        </g>
        <g transform="matrix(1.3306,0,0,1.3306,1917.995942,371.277702)">
            <path d="M0,0C3.479,3.317 6.601,6.882 9.688,10.562C10.103,8.865 10.103,8.865 10.527,7.133C10.893,5.651 11.259,4.169 11.625,2.688C11.807,1.941 11.99,1.195 12.178,0.426C13.574,-5.211 13.574,-5.211 14.688,-7.438C24.673,-8.13 36.568,-6.997 45.688,-2.438C45.173,6.8 44.048,15.913 42.792,25.074C38.848,54.128 40.869,83.211 42.62,112.366C42.689,113.516 42.758,114.665 42.829,115.849C42.96,118.017 43.094,120.186 43.23,122.354C44.111,136.715 44.111,136.715 42.688,139.562C40.269,140.028 37.942,140.365 35.5,140.625C34.43,140.745 34.43,140.745 33.339,140.868C31.123,141.11 28.905,141.336 26.688,141.562C26.001,141.639 25.315,141.716 24.608,141.795C22.699,142.007 20.787,142.191 18.875,142.375C17.755,142.485 16.635,142.594 15.48,142.707C12.688,142.562 12.688,142.562 10.906,141.508C9.13,138.672 8.649,135.896 8,132.625C7.749,131.399 7.497,130.173 7.238,128.91C6.688,125.562 6.688,125.562 6.688,121.562C2.979,123.99 -0.606,126.511 -4.158,129.166C-20.424,141.211 -36.158,145.245 -56.312,143.562C-73.518,140.849 -88.152,129.952 -98.562,116.312C-112.667,95.762 -117.305,72.148 -113.125,47.75C-109.955,30.96 -102.348,16.662 -90.312,4.562C-89.722,3.937 -89.132,3.312 -88.523,2.668C-65.289,-20.003 -24.617,-19.277 0,0ZM-54.312,22.562C-55.859,23.429 -55.859,23.429 -57.438,24.312C-68.584,33.036 -75.49,43.384 -77.781,57.438C-79.22,69.996 -76.946,83.11 -69.195,93.363C-66.987,95.872 -64.716,98.241 -62.312,100.562C-61.774,101.087 -61.235,101.612 -60.68,102.152C-51.457,110.443 -41.221,111.263 -29.355,110.742C-19.79,109.903 -11.961,103.586 -5.625,96.812C3.086,86.335 6.821,73.069 5.688,59.562C3.883,44.967 -2.658,33.735 -13.891,24.293C-25.25,16.176 -42.223,15.749 -54.312,22.562Z" style="fill:white;fill-rule:nonzero;"/>
        </g>
        <g transform="matrix(1.3306,0,0,1.3306,784.32436,371.277702)">
            <path d="M0,0C3.479,3.317 6.601,6.882 9.688,10.562C10.103,8.865 10.103,8.865 10.527,7.133C10.893,5.651 11.259,4.169 11.625,2.688C11.807,1.941 11.99,1.195 12.178,0.426C13.574,-5.211 13.574,-5.211 14.688,-7.438C24.673,-8.13 36.568,-6.997 45.688,-2.438C45.173,6.8 44.048,15.913 42.792,25.074C38.848,54.128 40.869,83.211 42.62,112.366C42.689,113.516 42.758,114.665 42.829,115.849C42.96,118.017 43.094,120.186 43.23,122.354C44.111,136.715 44.111,136.715 42.688,139.562C40.269,140.028 37.942,140.365 35.5,140.625C34.43,140.745 34.43,140.745 33.339,140.868C31.123,141.11 28.905,141.336 26.688,141.562C26.001,141.639 25.315,141.716 24.608,141.795C22.699,142.007 20.787,142.191 18.875,142.375C17.755,142.485 16.635,142.594 15.48,142.707C12.688,142.562 12.688,142.562 10.906,141.508C9.13,138.672 8.649,135.896 8,132.625C7.749,131.399 7.497,130.173 7.238,128.91C6.688,125.562 6.688,125.562 6.688,121.562C2.979,123.99 -0.606,126.511 -4.158,129.166C-20.424,141.211 -36.158,145.245 -56.312,143.562C-73.518,140.849 -88.152,129.952 -98.562,116.312C-112.667,95.762 -117.305,72.148 -113.125,47.75C-109.955,30.96 -102.348,16.662 -90.312,4.562C-89.722,3.937 -89.132,3.312 -88.523,2.668C-65.289,-20.003 -24.617,-19.277 0,0ZM-54.312,22.562C-55.859,23.429 -55.859,23.429 -57.438,24.312C-68.584,33.036 -75.49,43.384 -77.781,57.438C-79.22,69.996 -76.946,83.11 -69.195,93.363C-66.987,95.872 -64.716,98.241 -62.312,100.562C-61.774,101.087 -61.235,101.612 -60.68,102.152C-51.457,110.443 -41.221,111.263 -29.355,110.742C-19.79,109.903 -11.961,103.586 -5.625,96.812C3.086,86.335 6.821,73.069 5.688,59.562C3.883,44.967 -2.658,33.735 -13.891,24.293C-25.25,16.176 -42.223,15.749 -54.312,22.562Z" style="fill:white;fill-rule:nonzero;"/>
        </g>
        <g transform="matrix(1.3306,0,0,1.3306,1321.803778,351.651345)">
            <path d="M0,0C1.056,-0.016 2.111,-0.032 3.199,-0.049C20.661,-0.06 35.129,6.338 47.75,18.312C57.877,28.67 64.948,42.083 67.75,56.312C68.09,57.983 68.09,57.983 68.438,59.688C69.895,76.595 69.895,76.595 65.75,83.312C60.298,88.916 53.091,89.576 45.617,90.277C44.45,90.394 44.45,90.394 43.26,90.514C40.715,90.766 38.17,91.009 35.625,91.25C33.846,91.423 32.067,91.596 30.288,91.769C18.053,92.948 5.811,94.04 -6.438,95.062C-7.197,95.127 -7.956,95.192 -8.738,95.259C-17.922,96.038 -27.025,96.492 -36.25,96.312C-32.557,109.11 -25.794,116.426 -14.242,122.938C-1.629,128.734 14.087,127.719 27.141,123.715C34.834,120.726 42.71,117.134 48.871,111.559C52.056,109.073 52.905,109.08 56.75,109.312C58.651,112.715 60.516,116.137 62.375,119.562C62.916,120.531 63.458,121.499 64.016,122.496C64.518,123.431 65.021,124.365 65.539,125.328C66.01,126.187 66.482,127.046 66.967,127.931C67.75,130.312 67.75,130.312 66.995,132.494C58.333,145.147 44.087,152.166 29.75,156.312C29.119,156.498 28.488,156.683 27.838,156.875C5.498,162.698 -19.726,158.685 -39.499,147.373C-43.807,144.764 -47.591,141.76 -51.25,138.312C-51.944,137.66 -52.637,137.008 -53.352,136.336C-70.067,119.104 -72.771,96.479 -72.52,73.559C-71.968,52.372 -61.96,31.945 -46.641,17.289C-38.843,10.842 -29.967,5.27 -20.25,2.312C-19.087,1.957 -17.925,1.601 -16.727,1.234C-11.197,-0.111 -5.661,-0.017 0,0ZM-21.25,37.312C-21.853,37.695 -22.457,38.078 -23.078,38.473C-30.742,44.1 -35.528,53.136 -37.25,62.312C-37.589,65.69 -37.589,65.69 -37.25,68.312C-34.377,71.186 -25.648,69.623 -21.805,69.638C-11.966,69.55 -2.32,68.645 7.438,67.438C8.508,67.307 8.508,67.307 9.599,67.174C20.927,66.608 20.927,66.608 30.75,62.312C30.849,53.274 27.612,47.012 21.5,40.562C14.221,33.596 6.832,30.963 -3.201,30.853C-10.18,31.009 -15.424,33.54 -21.25,37.312Z" style="fill:white;fill-rule:nonzero;"/>
        </g>
        <g transform="matrix(1.3306,0,0,1.3306,283.945823,362.145417)">
            <path d="M0,0C1.055,0.005 1.055,0.005 2.132,0.01C3.617,0.02 5.101,0.04 6.585,0.069C8.866,0.113 11.145,0.131 13.426,0.143C24.563,0.246 24.563,0.246 25.742,1.426C26.569,9.221 25.366,16.967 24.305,24.676C17.844,67.18 17.844,67.18 27.988,107.371C32.178,112.799 37.35,115.295 43.742,117.426C52.818,118.048 60.787,118.332 68.742,113.426C69.634,112.928 70.526,112.431 71.445,111.918C79.384,107.255 86.792,101.446 89.742,92.426C90.037,89.654 90.243,86.965 90.354,84.187C90.392,83.395 90.429,82.602 90.468,81.786C90.796,74.347 90.906,66.91 90.941,59.465C90.954,57.165 90.973,54.865 90.995,52.565C91.055,46.043 91.111,39.52 91.144,32.998C91.164,28.97 91.2,24.942 91.244,20.914C91.258,19.39 91.267,17.866 91.27,16.342C91.275,14.227 91.298,12.113 91.326,9.998C91.334,8.798 91.342,7.598 91.35,6.361C91.742,3.426 91.742,3.426 93.065,1.538C95.877,-0.327 98.65,0.055 101.965,0.062C102.666,0.062 103.367,0.062 104.09,0.061C105.57,0.063 107.05,0.073 108.531,0.09C110.8,0.113 113.068,0.11 115.338,0.104C126.463,0.147 126.463,0.147 128.742,2.426C128.985,5.038 128.985,5.038 128.973,8.383C128.971,10.247 128.971,10.247 128.969,12.149C128.956,13.512 128.943,14.875 128.93,16.238C128.923,17.644 128.916,19.05 128.91,20.456C128.853,29.702 128.597,38.936 128.242,48.176C127.401,70.07 127.715,91.9 128.386,113.793C128.501,117.577 128.601,121.362 128.688,125.147C128.725,126.708 128.767,128.269 128.812,129.83C128.877,132.182 128.921,134.534 128.961,136.887C128.984,137.602 129.007,138.316 129.031,139.053C129.061,141.795 129.006,143.933 127.698,146.379C124.649,148.011 121.599,147.793 118.23,147.719C117.502,147.715 116.774,147.71 116.024,147.706C113.7,147.689 111.378,147.651 109.055,147.613C107.479,147.598 105.902,147.585 104.326,147.572C100.465,147.539 96.603,147.487 92.742,147.426C91.501,143.947 90.499,140.817 90.328,137.121C90.289,136.373 90.251,135.626 90.211,134.855C90.18,134.095 90.149,133.334 90.117,132.551C90.079,131.767 90.04,130.983 90,130.176C89.907,128.259 89.823,126.343 89.742,124.426C88.966,125.055 88.19,125.684 87.391,126.332C68.983,141.022 50.219,150.265 26.039,147.922C13.653,146.058 2.819,141.252 -5.023,131.207C-25.228,102.052 -18.095,46.56 -12.32,13.863C-12.163,12.959 -12.005,12.056 -11.843,11.125C-10.278,3.046 -8.93,-0.099 0,0Z" style="fill:white;fill-rule:nonzero;"/>
        </g>
        <g transform="matrix(1.3306,0,0,1.3306,539.078064,357.38956)">
            <path d="M0,0C1.546,5.67 2.485,11.147 3,17C3.895,16.481 4.789,15.961 5.711,15.426C19.156,7.654 29.896,1.638 45.75,1.688C46.79,1.671 47.831,1.655 48.902,1.639C50.397,1.638 50.397,1.638 51.922,1.637C52.825,1.634 53.728,1.631 54.659,1.628C57,2 57,2 58.808,3.246C60.339,5.499 60.3,6.726 60.145,9.43C60.1,10.302 60.056,11.174 60.01,12.073C59.912,13.46 59.912,13.46 59.812,14.875C59.756,15.815 59.7,16.755 59.643,17.724C58.343,37.657 58.343,37.657 56,40C53.728,40.051 51.455,40.035 49.184,39.992C47.765,39.975 46.346,39.958 44.928,39.941C42.692,39.911 40.456,39.875 38.22,39.829C24.949,39.448 24.949,39.448 13.188,45.125C4.942,55.962 6.838,71.614 6.875,84.5C6.875,85.332 6.875,86.163 6.876,87.02C6.879,97.284 7.01,107.537 7.297,117.797C7.323,118.759 7.35,119.721 7.377,120.713C7.508,125.402 7.654,130.091 7.82,134.779C7.872,136.483 7.925,138.187 7.977,139.891C8.009,140.67 8.041,141.45 8.074,142.253C8.182,146.091 8.189,147.717 6,151C2.883,151.356 2.883,151.356 -1.09,151.328C-1.79,151.326 -2.491,151.324 -3.212,151.322C-4.694,151.316 -6.176,151.302 -7.658,151.281C-9.925,151.25 -12.192,151.24 -14.459,151.234C-25.508,151.164 -25.508,151.164 -29,150C-29.006,148.763 -29.012,147.526 -29.018,146.251C-29.075,134.486 -29.148,122.72 -29.236,110.955C-29.28,104.909 -29.319,98.863 -29.346,92.817C-29.373,86.962 -29.413,81.107 -29.463,75.252C-29.48,73.039 -29.491,70.826 -29.498,68.613C-29.556,50.202 -30.057,31.119 -35.449,13.367C-36.11,10.529 -36.088,7.904 -36,5C-29.466,3.607 -22.906,2.447 -16.312,1.375C-15.505,1.24 -14.698,1.105 -13.866,0.966C-9.177,0.217 -4.748,-0.14 0,0Z" style="fill:white;fill-rule:nonzero;"/>
        </g>
        <g transform="matrix(1.3306,0,0,1.3306,1680.73325,362.711961)">
            <path d="M0,0L41,0C41.141,12.399 41.203,24.657 40.422,37.028C38.906,61.022 38.83,84.967 38.875,109C38.877,109.912 38.878,110.824 38.88,111.764C38.903,123.176 38.944,134.588 39,146C35.488,147.171 32.701,147.13 28.996,147.133C27.977,147.134 27.977,147.134 26.938,147.136C25.505,147.136 24.072,147.135 22.639,147.13C20.442,147.125 18.246,147.13 16.049,147.137C14.656,147.136 13.264,147.135 11.871,147.133C10.602,147.132 9.333,147.131 8.025,147.129C5,147 5,147 3,146C1.767,142.302 1.884,138.906 1.918,135.057C1.921,134.247 1.924,133.436 1.928,132.601C1.935,130.835 1.944,129.069 1.955,127.303C1.973,124.475 1.983,121.648 1.991,118.821C2.016,110.779 2.05,102.738 2.096,94.696C2.212,73.512 2.217,52.482 0.448,31.36C-0.385,20.917 -0.123,10.468 0,0Z" style="fill:white;fill-rule:nonzero;"/>
        </g>
        <g transform="matrix(1.3306,0,0,1.3306,1916.000042,583.092661)">
            <path d="M0,0C0.852,-0.049 1.704,-0.098 2.582,-0.148C6.546,0.648 7.858,2.094 10.188,5.375C10.851,8.701 10.697,11.935 10.562,15.312C10.543,16.319 10.523,17.326 10.502,18.363C10.437,21.33 10.348,24.295 10.252,27.261C10.129,31.31 10.04,35.36 9.945,39.41C9.722,48.733 9.463,58.054 9.188,67.375C18.26,64.496 24.9,58.668 31.812,52.25C43.23,41.757 43.23,41.757 48.605,41.062C52.536,41.268 54.626,41.912 57.688,44.438C59.513,48.012 60.772,51.336 60.188,55.375C57.166,61.469 52.278,64.424 46.688,68.062C44.989,69.191 43.291,70.32 41.594,71.449C40.844,71.94 40.095,72.431 39.322,72.936C37.223,74.351 35.199,75.838 33.188,77.375C34.538,80.389 36.044,82.478 38.383,84.801C39.013,85.429 39.643,86.058 40.292,86.706C40.959,87.36 41.625,88.014 42.312,88.688C42.99,89.36 43.668,90.032 44.366,90.724C48.348,94.648 52.422,98.404 56.672,102.035C59.826,104.824 61.817,107.239 63.125,111.25C63.207,115.334 62.138,117.81 60.188,121.375C57.467,124.095 55.036,125.196 51.188,125.375C45.217,123.392 41.918,120.554 37.812,115.875C37.251,115.253 36.689,114.631 36.111,113.99C31.285,108.601 26.729,103.002 22.188,97.375C20.787,95.654 19.371,93.945 17.938,92.25C17.033,91.163 17.033,91.163 16.109,90.055C13.811,88.046 12.151,87.867 9.188,87.375C9.214,88.318 9.24,89.261 9.267,90.233C9.352,93.746 9.415,97.258 9.462,100.772C9.487,102.29 9.521,103.808 9.565,105.326C9.626,107.513 9.654,109.699 9.676,111.887C9.702,113.201 9.728,114.516 9.755,115.87C9.047,120.241 7.597,121.652 4.188,124.375C-0.156,126.09 -3.549,125.033 -7.812,123.375C-10.525,120.503 -11.189,118.549 -11.2,114.638C-11.21,113.689 -11.22,112.74 -11.23,111.762C-11.223,110.21 -11.223,110.21 -11.217,108.627C-11.223,107.532 -11.23,106.438 -11.237,105.31C-11.256,101.687 -11.252,98.064 -11.246,94.441C-11.251,91.926 -11.256,89.41 -11.262,86.894C-11.271,81.619 -11.269,76.344 -11.259,71.069C-11.247,64.976 -11.261,58.884 -11.288,52.791C-11.313,46.924 -11.315,41.057 -11.309,35.19C-11.309,32.696 -11.315,30.202 -11.327,27.709C-11.342,24.223 -11.331,20.738 -11.314,17.252C-11.324,16.22 -11.334,15.187 -11.344,14.124C-11.298,9.684 -11.261,7.108 -8.906,3.258C-5.875,0.532 -4.005,0.156 0,0Z" style="fill:white;fill-rule:nonzero;"/>
        </g>
        <g transform="matrix(1.3306,0,0,1.3306,1795.164888,639.476855)">
            <path d="M0,0C2.562,1.812 2.562,1.812 4,4C4.99,5.485 4.99,5.485 6,7C6.66,6.402 7.32,5.804 8,5.188C16.403,-0.94 25.932,-1.169 36,0C39.335,0.94 41.092,1.987 44,4C44.887,4.536 45.774,5.072 46.688,5.625C52.612,11.71 55.02,19.513 55.316,27.812C55.359,28.961 55.401,30.11 55.444,31.294C55.503,33.128 55.503,33.128 55.562,35C55.604,36.252 55.645,37.504 55.687,38.794C55.917,46.257 56.123,53.721 56.188,61.188C56.2,61.956 56.213,62.725 56.227,63.518C56.236,69.364 56.072,76.264 52.438,81.062C48.613,82.533 45.034,82.662 41,82C37.501,79.886 36.294,78.883 35,75C34.924,73.62 34.903,72.237 34.918,70.855C34.925,70.023 34.931,69.192 34.938,68.335C34.949,67.438 34.961,66.541 34.973,65.617C34.985,63.708 34.998,61.799 35.01,59.891C35.034,56.889 35.062,53.887 35.096,50.886C35.126,47.984 35.144,45.082 35.16,42.18C35.174,41.295 35.187,40.41 35.201,39.499C35.227,32.913 34.89,26.229 31.5,20.438C27.422,18.092 23.573,18.209 19,19C12.87,21.497 7.967,26.066 5,32C4.907,33.424 4.875,34.852 4.874,36.279C4.87,37.163 4.866,38.048 4.862,38.959C4.861,39.918 4.86,40.876 4.859,41.863C4.841,43.885 4.821,45.906 4.801,47.928C4.772,51.121 4.75,54.313 4.75,57.507C4.746,60.584 4.712,63.661 4.672,66.738C4.679,67.691 4.686,68.643 4.693,69.624C4.608,74.259 4.512,76.337 1.601,80.104C-1.853,82.622 -3.724,82.601 -7.844,82.367C-10.758,81.871 -12.715,80.857 -15,79C-16.451,76.097 -16.135,73.561 -16.145,70.319C-16.149,69.632 -16.152,68.946 -16.155,68.239C-16.165,65.964 -16.167,63.689 -16.168,61.414C-16.171,59.835 -16.175,58.255 -16.178,56.676C-16.184,53.362 -16.186,50.048 -16.185,46.734C-16.185,42.488 -16.199,38.243 -16.216,33.997C-16.227,30.733 -16.229,27.47 -16.229,24.207C-16.23,22.641 -16.234,21.076 -16.242,19.511C-16.252,17.32 -16.249,15.13 -16.243,12.94C-16.244,11.694 -16.246,10.447 -16.247,9.163C-16.01,6.125 -15.719,4.479 -14,2C-9.56,-0.96 -5.209,-0.649 0,0Z" style="fill:white;fill-rule:nonzero;"/>
        </g>
        <g transform="matrix(1.3306,0,0,1.3306,1727.886403,638.395742)">
            <path d="M0,0C0.762,0.055 1.524,0.111 2.309,0.168C5.415,1.056 6.563,2.275 8.562,4.812C9.077,8.031 9.077,8.031 9.096,11.888C9.105,12.593 9.113,13.298 9.122,14.023C9.145,16.348 9.138,18.671 9.129,20.996C9.134,22.615 9.14,24.234 9.148,25.853C9.158,29.245 9.154,32.637 9.139,36.029C9.122,40.371 9.145,44.713 9.18,49.055C9.202,52.398 9.201,55.741 9.193,59.085C9.192,60.685 9.199,62.286 9.213,63.887C9.231,66.128 9.216,68.366 9.194,70.607C9.192,72.518 9.192,72.518 9.191,74.467C8.4,78.68 6.845,80.15 3.562,82.812C0.665,83.954 -1.209,83.812 -4.438,83.812C-7.409,82.456 -9.14,81.11 -11.438,78.812C-11.705,75.79 -11.705,75.79 -11.728,71.856C-11.735,71.14 -11.741,70.425 -11.748,69.687C-11.767,67.315 -11.771,64.943 -11.773,62.57C-11.78,60.924 -11.787,59.277 -11.794,57.63C-11.806,54.175 -11.809,50.72 -11.808,47.265C-11.808,42.837 -11.835,38.41 -11.87,33.983C-11.892,30.58 -11.896,27.178 -11.895,23.776C-11.897,22.143 -11.906,20.511 -11.922,18.879C-11.941,16.595 -11.935,14.312 -11.923,12.028C-11.926,10.728 -11.929,9.428 -11.932,8.089C-11.353,4.256 -10.505,3.104 -7.438,0.812C-4.495,-0.168 -3.018,-0.27 0,0Z" style="fill:white;fill-rule:nonzero;"/>
        </g>
        <g transform="matrix(1.3306,0,0,1.3306,1724.144089,287.699361)">
            <path d="M0,0C4.481,2.743 7.699,6.348 9.375,11.375C9.987,20.191 9.925,26.264 4,33.125C-1.447,37.301 -9.093,37.595 -15.703,37.184C-22.193,36.2 -27.001,34.361 -31.438,29.312C-34.744,23.917 -34.152,17.474 -33.625,11.375C-31.308,6.278 -27.162,2.607 -22.625,-0.625C-16.026,-2.825 -6.411,-2.965 0,0Z" style="fill:white;fill-rule:nonzero;"/>
        </g>
        <g transform="matrix(1.3306,0,0,1.3306,1732.626667,582.261035)">
            <path d="M0,0C4.034,2.228 6.539,4.616 8,9C8.372,14.02 8.137,16.997 5,21C1.496,24.409 -1.091,25.804 -6,26C-10.829,25.237 -14.128,23.945 -17.117,19.906C-18.91,16.036 -18.738,12.131 -18,8C-13.841,-0.032 -8.564,-1.396 0,0Z" style="fill:white;fill-rule:nonzero;"/>
        </g>
    </g>
</svg>
